<?xml version="1.0" encoding="utf-8"?>
<svg xmlns="http://www.w3.org/2000/svg" viewBox="0 0 500 500">
  <path style="fill: rgb(216, 216, 216); stroke: rgb(0, 0, 0);" d="M 154.209 84.396 L 151.528 439.137 L 281.335 437.295 L 281.335 404.134 L 192.587 404.324 L 188.416 367.063 C 188.416 367.063 395.997 363.744 395.997 363.822 C 395.997 363.9 395.703 325.305 395.703 325.385 C 395.703 325.465 191.297 328.434 191.297 328.359 C 191.297 328.284 189.736 295.363 189.736 295.363 L 325.052 298.801 L 321.031 261.249 L 190.51 260.136 L 186.614 211.274 L 462.109 207.701 C 462.109 207.701 460.346 171.602 460.346 171.683 C 460.346 171.764 203.563 170.102 203.563 170.102 L 202.075 135.35 L 333.746 132.808 L 305.903 122.009 L 327.494 114.511 C 327.494 114.511 348.616 110.822 348.616 110.897 C 348.616 110.972 349.327 94.269 349.327 94.269 L 154.209 84.396 Z"/>
</svg>