<?xml version="1.0" encoding="utf-8"?>
<svg xmlns="http://www.w3.org/2000/svg" viewBox="0 0 500 500">
  <path style="fill: rgb(216, 216, 216); stroke: rgb(0, 0, 0);" d="M 88.095 227.23 C 88.095 227.23 309.312 127.83 309.312 127.757 C 309.312 127.684 368.449 206.734 368.449 206.734 L 246.082 370.363 L 246.742 332.857 L 270.917 277.724 L 242.606 281.62 C 242.606 281.62 220.313 289.469 220.389 289.547 C 220.465 289.625 207.891 311.662 207.891 311.743 C 207.891 311.824 189.358 319.713 189.358 319.713 L 191.92 293.29 L 203.87 261.626 C 203.87 261.626 271.221 221.87 271.297 221.87 C 271.373 221.87 294.354 201.951 294.354 201.951 C 294.354 201.951 234.426 208.449 234.346 208.529 C 234.266 208.609 164.766 238.527 164.593 238.612 C 164.42 238.697 119.642 266.253 119.562 266.253 C 119.482 266.253 88.295 226.908 88.095 227.23 Z"/>
</svg>