<?xml version="1.0" encoding="utf-8"?>
<svg xmlns="http://www.w3.org/2000/svg" viewBox="0 0 500 500">
  <path style="fill: rgb(216, 216, 216); stroke: rgb(0, 0, 0);" d="M 189.222 23.642 C 189.222 23.642 191.496 175.567 191.496 175.647 C 191.496 175.727 51.709 176.47 51.709 176.47 C 51.709 176.47 113.527 213.375 113.447 213.375 C 113.367 213.375 73.06 215.65 73.06 215.65 L 60.798 216.96 L 60.798 235.924 L 190.084 231.857 L 201.642 464.466 L 272.427 462.155 L 255.925 231.662 L 302.062 228.871 L 288.958 211.162 L 292.126 196.976 C 292.126 196.976 288.446 191.404 288.366 191.404 C 288.286 191.404 286.106 171.427 286.106 171.427 C 286.106 171.427 248.885 172.847 248.955 172.847 C 249.025 172.847 239.686 20.359 239.686 20.359 L 189.222 23.642 Z"/>
</svg>