<?xml version="1.0" encoding="utf-8"?>
<svg xmlns="http://www.w3.org/2000/svg" viewBox="0 0 500 500">
  <path style="fill: rgb(216, 216, 216); stroke: rgb(0, 0, 0);" d="M 62.298 144.709 C 62.298 144.709 211.907 23.187 211.736 23.187 C 211.565 23.187 424.081 277.427 424.081 277.427 L 410.595 315.866 L 381.96 309.22 C 381.96 309.22 345.937 302.61 345.766 302.442 C 345.595 302.274 337.313 253.984 337.313 253.984 C 337.313 253.984 305.586 279.682 305.506 279.762 C 305.426 279.842 281.011 299.308 280.931 299.388 C 280.851 299.468 308.884 354.906 309.042 354.987 C 309.2 355.068 375.046 363.987 375.214 364.158 C 375.382 364.329 351.363 416.666 351.363 416.666 C 351.363 416.666 298.855 422.961 298.684 422.961 C 298.513 422.961 185.652 321.036 185.566 320.868 C 185.48 320.7 61.976 145.021 62.298 144.709 Z"/>
</svg>