<svg width="800" height="600" xmlns="http://www.w3.org/2000/svg">
 <g id="Layer_1">
  <title>Layer 1</title>
  <path id="svg_2" d="m280,371c-92,-119 -108,-198 -108,-198c0,0 29,-50 29,-50c0,0 23,-44 24,-44c1,0 60,10 58,-14c-2,-24 143,-10 143,-10c0,0 84,-1 103,34c19,35 16,128 15,128c-1,0 -80,-40 -81,-41c-1,-1 38,-36 -40,-33c-78,3 -126,34 -127,34c-1,0 -4,45 -1,48c3,3 112,42 116,42c4,0 131,-35 91,86c-40,121 -81,138 -83,139c-2,1 -113,-27 -113,-28c0,-1 66,26 -26,-93z" opacity="NaN" stroke="#000" fill="#fff"/>
 </g>
</svg>