<?xml version="1.0" encoding="utf-8"?>
<svg xmlns="http://www.w3.org/2000/svg" viewBox="0 0 500 500">
  <path style="fill: rgb(216, 216, 216); stroke: rgb(0, 0, 0);" d="M 129.676 190.206 L 131.095 215.231 L 158.678 214.995 L 160.003 244.935 L 132.571 244.628 L 134.139 270.523 L 160.745 269.76 L 161.797 296.622 L 135.476 297.189 L 136.555 326.805 L 162.543 326.328 L 164.35 354.059 C 164.35 354.059 193.78 354.303 193.78 354.376 C 193.78 354.449 192.633 329.058 192.633 329.058 L 218.163 327.862 C 218.163 327.862 220.929 353.477 220.929 353.555 C 220.929 353.633 245.83 353.509 245.83 353.509 L 245.343 326.667 L 267.619 327.083 L 270.456 356.811 L 297.194 356.998 L 295.944 326.128 C 295.944 326.128 324.282 326.206 324.204 326.284 C 324.126 326.362 322.292 293.215 322.292 293.288 C 322.292 293.361 294.661 293.739 294.661 293.739 L 292.201 265.896 L 323.636 265.219 L 321.028 234.575 L 286.858 238.05 L 285.49 215.134 L 314.825 212.007 L 312.531 185.783 L 276.16 186.56 L 274.475 159.64 L 250.669 160.95 L 252.618 183.153 L 231.871 184.955 L 228.135 158.673 L 201.622 160.215 C 201.622 160.215 203.948 186.75 203.948 186.828 C 203.948 186.906 179.933 186.141 179.933 186.141 L 177.242 160.286 L 152.512 163.033 L 153.946 189.139 C 153.946 189.139 130.901 189.938 129.676 190.206 Z"/>
</svg>